# xmcd CD database file
#
# Track frame offsets:
#	150
#	13550
#	36010
#	56850
#	72936
#	98682
#	125682
#	137827
#	162199
#	191228
#	214252
#
# Disc length: 2995 seconds
#
# Revision: 5
# Processed by: cddbd v1.5.2PL0 Copyright (c) Steve Scherf et al.
# Submitted via: CDex 1.51
#
DISCID=a10bb10b
DTITLE=Christ. - Blue Shift Emissions
DYEAR=2007
DGENRE=New Age
TTITLE0=Substation
TTITLE1=Happyfour Twenty
TTITLE2=Making A Snow Angel
TTITLE3=Ganky
TTITLE4=Stained Century
TTITLE5=Cordate
TTITLE6=Holobenthic Grex Venalium
TTITLE7=Blue Shifty Missions
TTITLE8=Breathe Between Sleep
TTITLE9=Vernor Vinge
TTITLE10=Balaam
EXTD=YEAR: 2007
EXTT0=
EXTT1=
EXTT2=
EXTT3=
EXTT4=
EXTT5=
EXTT6=
EXTT7=
EXTT8=
EXTT9=
EXTT10=
PLAYORDER=
